<svg width="10" height="15" viewBox="0 0 10 15" fill="#FF1F00" xmlns="http://www.w3.org/2000/svg">
    <path d="M9.40625 9.71875L8.78125 9.09375C8.625 8.96875 8.40625 8.96875 8.25 9.125L5.8125 11.625L5.8125 0.875C5.8125 0.65625 5.65625 0.5 5.4375 0.5L4.5625 0.5C4.375 0.5 4.1875 0.656249 4.1875 0.874999L4.1875 11.625L1.78125 9.125C1.625 8.96875 1.40625 8.96875 1.25 9.09375L0.625001 9.71875C0.5 9.875 0.5 10.0937 0.625 10.25L4.75 14.375C4.90625 14.5 5.125 14.5 5.28125 14.375L9.40625 10.25C9.53125 10.0937 9.53125 9.875 9.40625 9.71875Z"/>
</svg>
