<svg width="33" height="38" viewBox="0 0 33 38" fill="none" xmlns="http://www.w3.org/2000/svg">
<path d="M32.3373 26.9414C30.9384 25.3828 28.2141 23.082 28.2141 15.4375C28.2141 9.72266 24.2381 5.12109 18.7895 3.93359V2.375C18.7895 1.11328 17.7587 0 16.507 0C15.1816 0 14.1508 1.11328 14.1508 2.375V3.93359C8.70224 5.12109 4.72624 9.72266 4.72624 15.4375C4.72624 23.082 2.00195 25.3828 0.602989 26.9414C0.161212 27.3867 -0.0596767 27.9805 0.0139528 28.5C0.0139528 29.7617 0.897507 30.875 2.3701 30.875H30.5702C32.0428 30.875 32.9264 29.7617 33 28.5C33 27.9805 32.7791 27.3867 32.3373 26.9414ZM4.94713 27.3125C6.49335 25.3086 8.18683 21.8203 8.26046 15.5117C8.26046 15.5117 8.26046 15.5117 8.26046 15.4375C8.26046 10.9102 11.9419 7.125 16.507 7.125C20.9984 7.125 24.7535 10.9102 24.7535 15.4375C24.7535 15.5117 24.6799 15.5117 24.6799 15.5117C24.7535 21.8203 26.447 25.3086 27.9932 27.3125H4.94713ZM16.507 38C19.084 38 21.1456 35.9219 21.1456 33.25H11.7947C11.7947 35.9219 13.8563 38 16.507 38Z" fill="white"/>
</svg>
