<svg width="20" height="18" viewBox="0 0 20 18" fill="none" xmlns="http://www.w3.org/2000/svg">
<path opacity="0.7" d="M13.9765 11.9687C13.907 12.0382 13.907 12.1078 13.907 12.1773V16.106H1.66884V3.86788H10.0478C10.1173 3.86788 10.1869 3.86788 10.2564 3.79835L11.369 2.68579C11.5428 2.51195 11.4037 2.19904 11.1604 2.19904H1.66884C0.730117 2.19904 0 2.96393 0 3.86788V16.106C0 17.0448 0.730117 17.7749 1.66884 17.7749H13.907C14.811 17.7749 15.5758 17.0448 15.5758 16.106V11.0648C15.5758 10.8214 15.2629 10.6823 15.0891 10.8561L13.9765 11.9687ZM19.4003 4.98044C20.1999 4.18079 20.1999 2.89439 19.4003 2.09474L17.9053 0.599739C17.1056 -0.199913 15.8192 -0.199913 15.0196 0.599739L5.91047 9.70882L5.5628 12.8727C5.4585 13.7766 6.22338 14.5415 7.12734 14.4372L10.2912 14.0895L19.4003 4.98044ZM15.993 6.02347L9.52629 12.4902L7.23164 12.7684L7.50978 10.4737L13.9765 4.00695L15.993 6.02347ZM18.2182 3.27684C18.392 3.41591 18.392 3.62451 18.2529 3.79835L17.1751 4.87614L15.1586 2.82486L16.2017 1.78183C16.3407 1.608 16.5841 1.608 16.7232 1.78183L18.2182 3.27684Z" fill="#282828"/>
</svg>
