<svg width="31" height="26" viewBox="0 0 31 26" fill="none" xmlns="http://www.w3.org/2000/svg">
<path opacity="0.2" d="M30.7133 23.2362L2.1324 0.916332C1.98901 0.820743 1.79784 0.772949 1.65445 0.772949C1.36769 0.772949 1.17651 0.868537 1.03313 1.01192L0.55519 1.63324C0.459602 1.77663 0.364014 1.92001 0.364014 2.11118C0.364014 2.35016 0.507396 2.58913 0.698573 2.68471L29.2795 25.0524C29.375 25.1479 29.5662 25.1957 29.7096 25.1957C29.9964 25.1957 30.1875 25.1002 30.3309 24.909L30.8089 24.3354C30.9045 24.1921 31 24.0487 31 23.8575C31 23.6185 30.8567 23.3796 30.7133 23.2362ZM14.5589 7.75089L21.0111 12.7693C20.9155 9.90163 18.5736 7.60751 15.7059 7.60751C15.3236 7.6553 14.9412 7.6553 14.5589 7.75089ZM16.8052 18.2178L10.353 13.1994C10.4486 16.0671 12.7905 18.3134 15.7059 18.3134C16.0405 18.3134 16.4228 18.3134 16.8052 18.2178ZM15.7059 6.0781C20.3897 6.0781 24.739 8.70677 27.0331 12.9604C26.4596 14.0597 25.7905 15.0156 24.9302 15.8759L26.7464 17.2619C27.75 16.2104 28.6103 15.0156 29.2795 13.6774C29.375 13.4862 29.4706 13.2472 29.4706 13.0082C29.4706 12.7215 29.375 12.4825 29.2795 12.2913C26.6986 7.22516 21.5368 3.78398 15.7059 3.78398C13.9375 3.78398 12.2647 4.11854 10.6875 4.69207L12.8861 6.46045C13.7942 6.22148 14.75 6.0781 15.7059 6.0781ZM15.7059 19.8428C10.9743 19.8428 6.62504 17.2141 4.33093 12.9604C4.90445 11.909 5.57357 10.9531 6.43387 10.0928L4.61769 8.70677C3.61401 9.75824 2.75372 10.9531 2.0846 12.2913C1.98901 12.4825 1.94122 12.7215 1.94122 12.9604C1.94122 13.2472 1.98901 13.4862 2.0846 13.6774C4.66548 18.7435 9.82725 22.1369 15.7059 22.1369C17.4265 22.1369 19.0993 21.8024 20.6765 21.2766L18.478 19.5082C17.5699 19.7472 16.614 19.8428 15.7059 19.8428Z" fill="#282828"/>
</svg>
