<svg width="28" height="20" viewBox="0 0 28 20" fill="none" xmlns="http://www.w3.org/2000/svg">
<path opacity="0.2" d="M13.7647 4.60771C13.239 4.6555 12.7132 4.7033 12.2353 4.84668C12.4743 5.22903 12.5699 5.70697 12.6176 6.13712C12.6176 7.61874 11.375 8.81359 9.94118 8.81359C9.46323 8.81359 8.98529 8.718 8.65073 8.47903C8.50735 8.95697 8.41176 9.43492 8.41176 9.96065C8.41176 12.9239 10.8015 15.3136 13.7647 15.3136C16.7279 15.3136 19.1176 12.9239 19.1176 9.96065C19.1176 7.04521 16.7279 4.6555 13.7647 4.6555V4.60771ZM27.3382 9.29153C24.7574 4.22536 19.5956 0.78418 13.7647 0.78418C7.88603 0.78418 2.72426 4.22536 0.143382 9.29153C0.0477941 9.48271 0 9.72168 0 9.96065C0 10.2474 0.0477941 10.4864 0.143382 10.6776C2.72426 15.7437 7.88603 19.1371 13.7647 19.1371C19.5956 19.1371 24.7574 15.7437 27.3382 10.6776C27.4338 10.4864 27.4816 10.2474 27.4816 10.0084C27.4816 9.72168 27.4338 9.48271 27.3382 9.29153ZM13.7647 16.843C9.03309 16.843 4.68382 14.2143 2.38971 9.96065C4.68382 5.70697 9.03309 3.0783 13.7647 3.0783C18.4485 3.0783 22.7978 5.70697 25.0919 9.96065C22.7978 14.2143 18.4485 16.843 13.7647 16.843Z" fill="#282828"/>
</svg>
