<svg width="179" height="172" viewBox="0 0 179 172" fill="none" xmlns="http://www.w3.org/2000/svg">
<path fill-rule="evenodd" clip-rule="evenodd" d="M28.3943 0.271116C21.8978 1.45957 16.6915 6.06148 14.743 12.3374L14.3279 13.6742L14.2732 30.4445L14.2186 47.215L12.5422 47.9114C6.69872 50.3388 2.47683 55.1581 0.582192 61.5636L0.0735323 63.2836L0.0144964 107.914C-0.0255311 138.063 0.0170552 153.08 0.145728 154.195C1.18992 163.244 8.69114 170.615 18.0852 171.823C19.9244 172.059 159.14 172.059 160.979 171.823C166.778 171.077 172.206 167.839 175.452 163.187C176.695 161.405 177.907 158.818 178.507 156.668L179 154.898V109.181V63.4646L178.417 61.4687C177.629 58.7746 176.615 56.6582 175.194 54.7419C172.936 51.6969 169.98 49.3634 166.532 47.9041L164.848 47.1913L164.791 30.5233L164.734 13.8552L164.318 12.5094C162.822 7.67759 159.776 4.03147 155.422 1.86097C153.943 1.12353 151.69 0.438231 149.964 0.200323C147.719 -0.108921 30.0978 -0.0404816 28.3943 0.271116ZM150.075 7.05385C150.835 7.24649 151.861 7.60661 152.354 7.8543C154.506 8.93448 156.497 11.1664 157.384 13.4931L157.798 14.5795L157.846 44.6476L157.895 74.7158L155.288 76.2583C149.96 79.4106 112.978 101.332 101.518 108.131C94.6981 112.177 89.5399 115.128 89.3884 115.071C89.2434 115.016 82.3693 110.959 74.1125 106.056L59.1004 97.1411L88.7554 97.0953L118.41 97.0495V93.3384V89.6273H82.3967H46.3829L33.7811 82.1587L21.1792 74.6901L21.177 44.9897C21.175 18.8998 21.2088 15.1599 21.4546 14.2249C22.1661 11.5191 24.2308 9.07262 26.8642 7.81501C27.7058 7.41306 28.8056 7.00768 29.3082 6.91407C29.8651 6.81051 53.3633 6.73609 89.4573 6.72378C147.462 6.70386 148.721 6.71074 150.075 7.05385ZM36.1622 28.5208V32.2324H70.0668H103.971V28.5208V24.8091H70.0668H36.1622V28.5208ZM36.1622 55.3171V59.0288H89.3494H142.537V55.3171V51.6055H89.3494H36.1622V55.3171ZM14.2294 62.6441V70.6048L11.899 69.2253C6.6819 66.137 6.91823 66.3103 6.91969 65.5732C6.92353 63.6095 8.12417 60.5096 9.70243 58.3884C10.7033 57.0435 13.4974 54.6834 14.089 54.6834C14.1661 54.6834 14.2294 58.2658 14.2294 62.6441ZM166.399 55.513C167.86 56.4739 169.745 58.5759 170.634 60.238C171.487 61.8326 172.198 64.411 172.11 65.5913L172.055 66.3347L168.582 68.383C166.672 69.5098 165.048 70.4322 164.972 70.4333C164.897 70.4344 164.835 66.8824 164.835 62.54C164.835 55.4212 164.863 54.6555 165.124 54.7544C165.282 54.8147 165.856 55.1562 166.399 55.513ZM36.1622 74.328V78.0397H89.3494H142.537V74.328V70.6164H89.3494H36.1622V74.328ZM27.1729 86.126C38.1989 92.6647 51.403 100.495 56.5154 103.527C64.1413 108.049 65.7661 109.08 65.5627 109.268C65.4263 109.394 59.5573 112.9 52.5205 117.06C45.4837 121.22 35.7784 126.964 30.9532 129.826C11.6036 141.3 7.12221 143.944 7.02259 143.944C6.9652 143.944 6.91841 128.26 6.91841 109.091C6.91841 89.9215 6.96502 74.2375 7.02205 74.2375C7.07907 74.2375 16.147 79.5873 27.1729 86.126ZM172.146 109.091C172.146 128.26 172.103 143.944 172.05 143.944C171.997 143.944 168.357 141.813 163.962 139.208C159.567 136.604 150.789 131.402 144.456 127.648C138.123 123.895 128.623 118.271 123.345 115.152C118.068 112.032 113.641 109.383 113.507 109.265C113.314 109.094 114.037 108.592 117.071 106.79C119.165 105.547 131.57 98.1936 144.639 90.4493C157.707 82.705 169.18 75.8925 170.135 75.3106C171.09 74.7287 171.933 74.2493 172.009 74.2451C172.084 74.2409 172.146 89.9215 172.146 109.091ZM83.478 119.497C88.8629 122.688 89.4386 122.987 89.8751 122.818C90.1388 122.716 93.9886 120.469 98.43 117.824L106.505 113.014L109.031 114.511C128.793 126.223 136.55 130.818 151.675 139.774C161.477 145.577 170.1 150.692 170.84 151.142L172.183 151.959L172.056 153.137C171.709 156.343 170.458 158.865 168.036 161.235C166.654 162.588 166.079 163.008 164.644 163.707C163.693 164.171 162.34 164.7 161.636 164.884C160.403 165.206 157.8 165.218 89.3494 165.218H18.3418L16.8105 164.723C11.2363 162.92 7.60893 158.605 7.00779 153.063L6.88734 151.952L8.8677 150.778C9.95685 150.132 21.3347 143.388 34.1517 135.792C46.9687 128.195 60.8566 119.963 65.0138 117.499L72.5723 113.018L75.0664 114.504C76.4381 115.321 80.2233 117.568 83.478 119.497Z" fill="#00B624"/>
</svg>
