<svg width="74" height="75" viewBox="0 0 74 75" fill="none" xmlns="http://www.w3.org/2000/svg">
<path fill-rule="evenodd" clip-rule="evenodd" d="M38.1569 0.0503214C37.5534 0.13316 36.7563 0.379101 36.2206 0.647567C35.4529 1.03234 34.4509 2.0504 34.0226 2.88071C33.2576 4.36417 33.1175 5.14861 33.0214 8.48909C32.8855 13.2076 32.5262 15.7111 31.5829 18.5119C31.0862 19.9866 30.7825 20.5937 30.1192 21.4374C28.0176 24.111 23.8983 26.995 21.1595 27.7104C19.5883 28.1208 19.6355 28.1183 13.2132 28.1202C9.58191 28.1212 6.79395 28.16 6.41355 28.2146C3.97583 28.5646 2.1287 29.9552 1.00175 32.2891C0.490009 33.3488 0.224005 34.2879 0.0628659 35.6031C-0.0448686 36.4825 -0.0259872 36.9463 0.212806 39.2892C0.233445 39.4914 0.378387 41.0429 0.534991 42.7369C0.691502 44.4309 0.859768 46.2307 0.908915 46.7364C0.957969 47.242 1.08134 48.5819 1.18306 49.7138C1.28487 50.8456 1.40779 52.1489 1.45619 52.6099C1.50469 53.0709 1.56828 53.7376 1.59753 54.0916C1.62668 54.4456 1.73081 55.5626 1.82891 56.574C1.92693 57.5853 2.0318 58.7231 2.06188 59.1024C2.09196 59.4816 2.15406 60.1436 2.19997 60.5734C2.24588 61.0032 2.41201 62.7823 2.56926 64.5269C2.91931 68.4109 3.04167 69.2632 3.40504 70.346C4.23832 72.8293 5.82351 74.2807 8.26151 74.7928C9.15476 74.9804 15.5691 75.0797 16.5185 74.9206C17.4283 74.7682 18.1231 74.416 19.5883 73.3644C21.0254 72.333 21.1667 72.2499 21.4827 72.2499C21.6088 72.2499 22.3552 72.5562 23.1413 72.9305C25.6667 74.1333 27.1334 74.5768 29.5517 74.869C30.612 74.997 32.349 75.0109 43.9441 74.9835C58.3463 74.9495 57.7337 74.9715 59.9074 74.4102C61.7755 73.9279 62.9827 73.2823 64.1202 72.1579C64.9919 71.2961 65.4288 70.5785 65.7993 69.3997C65.9862 68.8054 66.0161 68.5196 66.0161 67.331C66.0161 65.7657 65.9114 65.2893 65.372 64.4008C65.1917 64.1039 65.0442 63.8344 65.0442 63.802C65.0442 63.7696 65.321 63.6644 65.6593 63.5681C67.0133 63.183 68.5165 62.2915 69.3621 61.3724C69.9092 60.7778 70.4788 59.7395 70.6515 59.0222C70.8221 58.3135 70.8134 57.0216 70.6326 56.2243C70.4633 55.478 70.0567 54.5242 69.7219 54.0882L69.4977 53.7962L69.9758 53.5762C70.9283 53.1376 72.1021 52.0609 72.9031 50.8909C73.7001 49.7265 74.0871 48.3064 73.9835 46.9258C73.8389 44.9988 73.2752 43.6318 72.172 42.5334L71.4597 41.8242L71.736 41.568C72.4994 40.8603 73.4706 38.8733 73.7939 37.3584C73.9984 36.3996 74.0004 34.9591 73.7983 34.202C72.9377 30.9786 69.8255 28.7552 65.4169 28.2146C64.9209 28.1538 61.3908 28.1184 55.8142 28.1184C50.1185 28.1184 46.9959 28.0865 46.9959 28.0283C46.9959 27.9787 47.0571 27.7823 47.1319 27.5916C47.7781 25.9441 48.4301 22.6637 48.6717 19.8437C48.8409 17.8706 48.7285 14.2675 48.438 12.3506C47.3851 5.40282 44.541 1.00963 40.5288 0.133619C39.8992 -0.00392367 38.8258 -0.0416191 38.1569 0.0503214ZM40.1411 3.66653C42.3567 4.70775 43.7841 6.65542 44.7339 9.93329C46.3244 15.4227 45.8272 22.6733 43.5027 27.8885C43.2998 28.3436 43.022 29.1918 42.8853 29.7733C42.7486 30.3548 42.6139 30.922 42.5859 31.0337L42.5351 31.2367L53.7203 31.268L64.9054 31.2994L65.967 31.5571C68.3723 32.1409 69.9519 33.1222 70.6117 34.4424C70.8057 34.8306 70.8276 34.9963 70.821 36.0253C70.8099 37.7396 70.4507 38.8561 69.6428 39.6877C69.2603 40.0814 68.4777 40.5383 67.9829 40.6568L67.7283 40.7177V42.0916V43.4654L68.1217 43.5654C68.935 43.7723 69.3219 43.9325 69.6706 44.2069C70.466 44.8327 70.9266 46.0496 70.8545 47.3352C70.8219 47.918 70.7591 48.1335 70.4528 48.7143C69.6869 50.1668 67.8517 51.6086 66.6189 51.7262L66.1549 51.7705V53.1727V54.5749L66.4315 54.6888C66.8405 54.857 67.3114 55.4247 67.5084 55.9869C67.6334 56.3433 67.6821 56.7397 67.6821 57.4015C67.6821 58.2488 67.6605 58.3595 67.4075 58.8132C66.9357 59.6595 66.0373 60.3011 64.6957 60.75C64.0229 60.9752 62.5923 61.2161 61.9252 61.2166L61.4441 61.217L61.4162 62.5606L61.3883 63.9043L61.7865 64.09C62.5065 64.4259 62.8521 65.0992 62.9676 66.3913C63.0743 67.5843 62.701 68.8449 61.9887 69.6966C61.5422 70.2305 60.4007 70.9224 59.4531 71.2335C57.5598 71.8552 58.4291 71.8209 43.6931 71.8561C30.5804 71.8874 30.3319 71.8848 29.4259 71.7013C27.6318 71.3382 25.6026 70.4682 22.839 68.8774L22.0523 68.4245L22.0289 49.5649L22.0055 30.7052L22.214 30.6449C23.529 30.2647 25.6043 29.3099 26.9212 28.4794C29.5281 26.8355 32.112 24.4423 33.6507 22.2467C34.3549 21.2419 35.0301 19.3911 35.5167 17.1323C35.9401 15.1666 36.2555 11.2482 36.2582 7.92043C36.26 5.73556 36.4897 4.70196 37.1204 4.04174C37.5718 3.56898 38.0441 3.39071 38.8511 3.3885C39.435 3.38684 39.6398 3.43098 40.1411 3.66653ZM18.8591 50.6393V70.0343L17.9716 70.6882C17.4834 71.0479 16.8823 71.4655 16.6357 71.6162L16.1875 71.8903L12.5947 71.8632L9.00196 71.8361L8.46143 71.5846C7.45239 71.115 6.50685 69.9171 6.14199 68.6462C5.97104 68.0508 5.98548 68.1899 5.29807 60.5274C5.0168 57.3923 4.72451 54.1445 4.64852 53.3101C4.57253 52.4757 4.44832 51.0691 4.37243 50.1841C4.29653 49.2992 4.17417 47.9546 4.10059 47.1961C4.02692 46.4375 3.94158 45.5066 3.91095 45.1274C3.88031 44.7481 3.69085 42.6396 3.48991 40.4417C3.07619 35.915 3.0699 35.7569 3.27157 34.9812C3.52675 34.0001 3.9439 33.2806 4.69767 32.5214C5.40433 31.8097 5.8995 31.4907 6.52462 31.3444C6.71639 31.2995 9.56997 31.2587 12.8661 31.2536L18.8591 31.2444V50.6393Z" fill="#2A29B4"/>
</svg>
