<svg width="12" height="14" viewBox="0 0 12 14" fill="none" xmlns="http://www.w3.org/2000/svg">
<path d="M7.14583 11.5002H7.77083C7.92708 11.5002 8.08333 11.37 8.08333 11.1877V5.56266C8.08333 5.40641 7.92708 5.25016 7.77083 5.25016H7.14583C6.96354 5.25016 6.83333 5.40641 6.83333 5.56266V11.1877C6.83333 11.37 6.96354 11.5002 7.14583 11.5002ZM11.4167 2.75016H9.25521L8.36979 1.29183C8.16146 0.927246 7.74479 0.666829 7.30208 0.666829H4.67188C4.22917 0.666829 3.8125 0.927246 3.60417 1.29183L2.71875 2.75016H0.583333C0.348958 2.75016 0.166667 2.9585 0.166667 3.16683V3.5835C0.166667 3.81787 0.348958 4.00016 0.583333 4.00016H1V12.7502C1 13.4533 1.54687 14.0002 2.25 14.0002H9.75C10.4271 14.0002 11 13.4533 11 12.7502V4.00016H11.4167C11.625 4.00016 11.8333 3.81787 11.8333 3.5835V3.16683C11.8333 2.9585 11.625 2.75016 11.4167 2.75016ZM4.61979 1.99495C4.64583 1.96891 4.69792 1.91683 4.75 1.91683C4.75 1.91683 4.75 1.91683 4.77604 1.91683H7.22396C7.27604 1.91683 7.32813 1.96891 7.35417 1.99495L7.79688 2.75016H4.17708L4.61979 1.99495ZM9.75 12.7502H2.25V4.00016H9.75V12.7502ZM4.22917 11.5002H4.85417C5.01042 11.5002 5.16667 11.37 5.16667 11.1877V5.56266C5.16667 5.40641 5.01042 5.25016 4.85417 5.25016H4.22917C4.04688 5.25016 3.91667 5.40641 3.91667 5.56266V11.1877C3.91667 11.37 4.04688 11.5002 4.22917 11.5002Z" fill="#FF1F00"/>
</svg>
