<svg width="25" height="25" viewBox="0 0 25 25" fill="none" xmlns="http://www.w3.org/2000/svg">
<path d="M12.5 0C5.59476 0 0 5.59476 0 12.5C0 19.4052 5.59476 25 12.5 25C19.4052 25 25 19.4052 25 12.5C25 5.59476 19.4052 0 12.5 0ZM12.5 22.5806C6.90524 22.5806 2.41935 18.0948 2.41935 12.5C2.41935 6.95565 6.90524 2.41935 12.5 2.41935C18.0444 2.41935 22.5806 6.95565 22.5806 12.5C22.5806 18.0948 18.0444 22.5806 12.5 22.5806ZM15.5746 17.3387C15.877 17.5403 16.2298 17.4899 16.4315 17.1875L17.3891 15.9274C17.5907 15.625 17.5403 15.2722 17.2379 15.0706L13.9113 12.6008V5.44355C13.9113 5.14113 13.6089 4.83871 13.3065 4.83871H11.6935C11.3407 4.83871 11.0887 5.14113 11.0887 5.44355V13.7601C11.0887 13.9113 11.1391 14.1129 11.2903 14.2137L15.5746 17.3387Z" fill="#282828"/>
</svg>
