<svg width="164" height="63" viewBox="0 0 164 63" fill="none" xmlns="http://www.w3.org/2000/svg">
<path d="M21.7802 62.9828V23.6245H26.5604C30.8367 23.6245 34.3033 27.0912 34.3033 31.3675V51.5606H59.3495V62.9828H21.7802Z" fill="#F8A81B"/>
<path d="M84.2595 46.6167H88.9666V14.3918C88.9666 14.3918 89.198 9.31201 82.4076 9.31201C74.8455 9.31201 75.4628 14.3918 75.4628 14.3918V46.6167H80.1698V29.737H84.2595V46.6167ZM80.1698 14.3389C80.1698 14.3389 80.0155 12.6456 82.4076 12.6456C84.5682 12.6456 84.2595 14.3389 84.2595 14.3389V26.5092H80.1698V14.3389Z" fill="#007179"/>
<path d="M97.1122 20.2653H92.791V46.6167H97.1122V20.2653Z" fill="#007179"/>
<path d="M105.1 20.2653H100.779V46.6167H105.1V20.2653Z" fill="#007179"/>
<path d="M130.602 46.6167H135.309V14.0743C135.309 14.0743 135.309 9.31201 128.672 9.31201C121.805 9.31201 121.805 14.0743 121.805 14.0743V46.6167H126.512V14.0743C126.512 14.0743 126.512 12.5927 128.672 12.5927C130.602 12.5927 130.602 14.0743 130.602 14.0743V46.6167Z" fill="#007179"/>
<path d="M145.387 31.2186H143.381V23.9164C143.381 23.8635 143.458 22.8052 144.538 22.8052C145.464 22.8052 145.387 23.9164 145.387 23.9164V31.2186ZM145.31 42.8069C145.31 42.8598 145.233 43.971 144.307 43.971C143.226 43.971 143.381 42.8069 143.381 42.8069V34.1289H149.708V23.9164C149.708 23.9164 149.708 19.842 144.538 19.842C139.368 19.842 139.214 23.9164 139.214 23.9164V42.8069C139.214 42.8069 139.137 46.8813 144.307 46.8813C149.477 46.8813 149.631 42.8069 149.631 42.8069V38.7325H145.31V42.8069Z" fill="#007179"/>
<path d="M157.697 14.1272H153.452V39.8966C153.452 45.4526 157.079 46.6167 159.703 46.6167H161.323V43.7064H159.703C158.623 43.6535 157.697 42.701 157.697 39.8966V23.1227H161.323V20.2653H157.697V14.1272Z" fill="#007179"/>
<path d="M78.3628 61.3017C78.3628 61.3017 78.4138 61.85 77.648 61.85C76.9842 61.85 77.0098 61.3017 77.0098 61.3017V52.1747C77.0098 52.1747 76.9587 51.5556 77.7501 51.5556C78.3883 51.5556 78.3628 52.1924 78.3628 52.1924V54.4388H79.92V52.1924C79.92 52.1924 79.9966 50.459 77.7501 50.459C75.2993 50.459 75.4525 52.1217 75.4525 52.1924V61.284C75.4525 61.284 75.4015 62.9467 77.648 62.9467C79.9711 62.9467 79.92 61.284 79.92 61.284V58.5778H78.3628V61.3017Z" fill="#717171"/>
<path d="M85.5252 61.6201C85.5252 61.6378 85.4997 62.0092 85.1933 62.0092C84.8359 62.0092 84.887 61.6201 84.887 61.6201V55.3055C84.887 55.2878 84.887 54.934 85.2444 54.934C85.5507 54.934 85.5252 55.3055 85.5252 55.3055V61.6201ZM83.5084 61.6201C83.5084 61.6201 83.4829 62.9821 85.1933 62.9821C86.9037 62.9821 86.9548 61.6201 86.9548 61.6201V55.3055C86.9548 55.3055 86.9548 53.9435 85.2444 53.9435C83.534 53.9435 83.5084 55.3055 83.5084 55.3055V61.6201Z" fill="#717171"/>
<path d="M90.5434 62.8936H91.9475V55.3055C91.9475 55.2878 91.9475 54.8987 92.3304 54.8987C92.5346 54.8987 92.6623 55.0932 92.7133 55.2878V62.8936H93.9387V55.3055C93.9387 55.2878 93.9642 54.8987 94.4237 54.8987C94.7046 54.8987 94.679 55.3055 94.679 55.3055V62.8936H96.1086V55.3055C96.1086 55.3055 96.1852 53.9435 94.3982 53.9435C93.9387 53.9435 93.6068 54.032 93.326 54.1735C93.0963 54.0673 92.7133 53.9435 92.3049 53.9435C90.5179 53.9435 90.5434 55.3055 90.5434 55.3055V62.8936Z" fill="#717171"/>
<path d="M99.6968 62.8936H101.101V55.3055C101.101 55.2878 101.101 54.8987 101.484 54.8987C101.688 54.8987 101.816 55.0932 101.867 55.2878V62.8936H103.092V55.3055C103.092 55.2878 103.118 54.8987 103.577 54.8987C103.858 54.8987 103.832 55.3055 103.832 55.3055V62.8936H105.262V55.3055C105.262 55.3055 105.339 53.9435 103.552 53.9435C103.092 53.9435 102.76 54.032 102.479 54.1735C102.25 54.0673 101.867 53.9435 101.458 53.9435C99.6713 53.9435 99.6968 55.3055 99.6968 55.3055V62.8936Z" fill="#717171"/>
<path d="M112.297 54.0496H110.867V61.4963C110.867 61.514 110.893 61.9031 110.561 61.9031C110.203 61.9031 110.203 61.4963 110.203 61.4963V54.0496H108.825V61.4963C108.825 61.4963 108.748 62.8583 110.535 62.8583C112.348 62.8583 112.297 61.4963 112.297 61.4963V54.0496Z" fill="#717171"/>
<path d="M115.859 62.8936H117.238V55.3055C117.238 55.2878 117.238 54.8987 117.646 54.8987C117.927 54.8987 117.901 55.3055 117.901 55.3055V62.8936H119.331V55.3055C119.331 55.3055 119.408 53.9435 117.621 53.9435C115.834 53.9435 115.859 55.3055 115.859 55.3055V62.8936Z" fill="#717171"/>
<path d="M122.893 62.8936H124.323V54.0496H122.893V62.8936ZM122.715 52.6523C122.715 52.953 123.149 53.2537 123.583 53.2537C124.068 53.2537 124.476 52.953 124.476 52.6523C124.476 52.3162 124.068 52.0332 123.583 52.0332C123.149 52.0332 122.715 52.3162 122.715 52.6523Z" fill="#717171"/>
<path d="M129.951 61.6201C129.951 61.6378 129.925 62.0092 129.619 62.0092C129.261 62.0092 129.313 61.6201 129.313 61.6201V55.3055C129.313 55.2878 129.338 54.934 129.695 54.934C130.002 54.934 129.976 55.3055 129.976 55.3055V56.9505H131.406V55.3055C131.406 55.3055 131.406 53.9435 129.695 53.9435C127.985 53.9435 127.934 55.3055 127.934 55.3055V61.6201C127.934 61.6201 127.908 62.9821 129.619 62.9821C131.329 62.9821 131.38 61.6201 131.38 61.6201V59.6037H129.951V61.6201Z" fill="#717171"/>
<path d="M136.071 60.4527C136.071 59.5152 136.378 59.0377 136.735 59.02H136.863V61.9208H136.735C136.378 61.9031 136.071 61.4255 136.071 60.4527ZM134.667 60.4527C134.667 62.2922 135.867 62.8936 136.735 62.8936H138.267C138.267 60.4704 138.292 57.7111 138.292 55.3055C138.292 55.3055 138.267 53.9435 136.608 53.9435C134.897 53.9435 134.846 55.3055 134.846 55.3055V57.8349H136.225V55.3055C136.225 55.2878 136.199 54.8987 136.557 54.8987C136.888 54.8987 136.863 55.3055 136.863 55.3055V58.0471H136.735C135.867 58.0471 134.667 58.6485 134.667 60.4527Z" fill="#717171"/>
<path d="M143.206 52.0332H141.802V60.6473C141.802 62.5045 143.002 62.8936 143.87 62.8936H144.406V61.9208H143.87C143.513 61.9031 143.206 61.5847 143.206 60.6473V55.0402H144.406V54.085H143.206V52.0332Z" fill="#717171"/>
<path d="M147.615 62.8936H149.045V54.0496H147.615V62.8936ZM147.437 52.6523C147.437 52.953 147.871 53.2537 148.305 53.2537C148.79 53.2537 149.198 52.953 149.198 52.6523C149.198 52.3162 148.79 52.0332 148.305 52.0332C147.871 52.0332 147.437 52.3162 147.437 52.6523Z" fill="#717171"/>
<path d="M154.647 61.6201C154.647 61.6378 154.622 62.0092 154.315 62.0092C153.958 62.0092 154.009 61.6201 154.009 61.6201V55.3055C154.009 55.2878 154.009 54.934 154.366 54.934C154.673 54.934 154.647 55.3055 154.647 55.3055V61.6201ZM152.63 61.6201C152.63 61.6201 152.605 62.9821 154.315 62.9821C156.026 62.9821 156.077 61.6201 156.077 61.6201V55.3055C156.077 55.3055 156.077 53.9435 154.366 53.9435C152.656 53.9435 152.63 55.3055 152.63 55.3055V61.6201Z" fill="#717171"/>
<path d="M159.64 62.8936H161.018V55.3055C161.018 55.2878 161.018 54.8987 161.427 54.8987C161.708 54.8987 161.682 55.3055 161.682 55.3055V62.8936H163.112V55.3055C163.112 55.3055 163.188 53.9435 161.401 53.9435C159.614 53.9435 159.64 55.3055 159.64 55.3055V62.8936Z" fill="#717171"/>
<path fill-rule="evenodd" clip-rule="evenodd" d="M0.29834 31.8842V62.9645H6.55385H12.5327V37.5604V11.7178L24.7082 11.7958L36.8837 11.8738L38.8734 12.546C44.656 14.5 48.5698 18.3987 50.5582 24.1856C51.1878 26.0175 51.2127 26.2784 51.3052 31.9461L51.4007 37.8108H57.5228H63.6447L63.5275 31.9461C63.4023 25.6841 63.0744 23.2704 61.8589 19.6712C59.3441 12.2247 53.6603 5.89214 46.3703 2.41497C42.0602 0.359325 43.9483 0.506004 20.8261 0.431835L0.29834 0.365723V31.8842Z" fill="#007179"/>
</svg>
