<svg width="30" height="30" viewBox="0 0 30 30" fill="none" xmlns="http://www.w3.org/2000/svg">
<path d="M28.3592 19.3358L22.3827 16.8163C22.0897 16.6991 21.7381 16.5819 21.328 16.5819C20.5077 16.5819 19.746 16.9921 19.2772 17.578L17.3436 19.9217C14.2382 18.2225 11.7773 15.7616 10.0781 12.6562L12.4218 10.7226C13.0077 10.2538 13.4179 9.49212 13.4179 8.67181C13.4179 8.26166 13.3007 7.9101 13.1835 7.61713L10.664 1.64061C10.2538 0.70312 9.25775 0 8.14447 0C7.96869 0 7.79291 0.0585933 7.55854 0.117187L2.05077 1.34765C0.8789 1.64061 0 2.69529 0 3.98435C0 18.3983 11.6601 30.0584 26.0154 29.9998C27.3045 29.9998 28.3592 29.1209 28.6521 27.949L29.8826 22.4412C29.9412 22.2069 29.9998 22.0311 29.9998 21.8553C29.9998 20.742 29.2967 19.746 28.3592 19.3358ZM25.8983 27.2459C13.1835 27.1873 2.87107 16.8163 2.81248 4.10153L8.08588 2.87107L10.5468 8.61322L6.56245 11.8944C9.31634 17.6952 12.3046 20.6834 18.1053 23.4373L21.3866 19.453L27.1287 21.9139L25.8983 27.2459Z" fill="#282828"/>
</svg>
