<svg width="20" height="20" viewBox="0 0 20 20" fill="none" xmlns="http://www.w3.org/2000/svg">
<path d="M20 9.52148C20 8.34961 19.6094 7.2168 18.9844 6.2793C18.8281 6.04492 18.4766 6.00586 18.2812 6.20117L17.6172 6.9043C17.5 6.98242 17.4609 7.09961 17.4609 7.2168C17.4609 7.29492 17.5 7.37305 17.5391 7.45117C17.8906 8.07617 18.125 8.7793 18.125 9.52148C18.125 11.7871 16.2891 13.584 14.0625 13.584H5.3125L7.5 11.4746C7.69531 11.2793 7.69531 11.0059 7.5 10.8105L6.83594 10.1465C6.64062 9.95117 6.36719 9.95117 6.17188 10.1465L2.10938 14.209C1.91406 14.4043 1.91406 14.6777 2.10938 14.873L6.17188 18.9355C6.36719 19.1309 6.64062 19.1309 6.83594 18.9355L7.5 18.2715C7.69531 18.0762 7.69531 17.8027 7.5 17.6074L5.3125 15.459H14.0625C17.3047 15.459 20 12.8027 20 9.52148ZM2.42188 11.6309C2.07031 11.0059 1.875 10.3027 1.875 9.52148C1.875 7.29492 3.67188 5.45898 5.9375 5.45898H14.6484L12.4609 7.60742C12.2656 7.80273 12.2656 8.07617 12.4609 8.27148L13.125 8.93555C13.3203 9.13086 13.5938 9.13086 13.7891 8.93555L17.8516 4.87305C18.0469 4.67773 18.0469 4.4043 17.8516 4.20898L13.7891 0.146484C13.5938 -0.0488281 13.3203 -0.0488281 13.125 0.146484L12.4609 0.810547C12.2656 1.00586 12.2656 1.2793 12.4609 1.47461L14.6484 3.58398H5.9375C2.65625 3.58398 0 6.2793 0 9.52148C0 10.7324 0.351562 11.8652 0.976562 12.8027C1.13281 13.0371 1.48438 13.0762 1.67969 12.8809L2.34375 12.1777C2.46094 12.0996 2.5 11.9824 2.5 11.8652C2.5 11.7871 2.46094 11.709 2.42188 11.6309Z" fill="#282828"/>
</svg>
