<svg width="20" height="20" viewBox="0 0 20 20"  xmlns="http://www.w3.org/2000/svg">
<path d="M11.7339 9.51613L8.83064 8.66935C8.46774 8.54839 8.18548 8.14516 8.18548 7.74194C8.18548 7.21774 8.58871 6.77419 9.03226 6.77419H10.8468C11.129 6.77419 11.4113 6.85484 11.6532 7.01613C11.8952 7.17742 12.2177 7.1371 12.4194 6.93548L12.9032 6.49194C13.2258 6.20968 13.1855 5.72581 12.8226 5.48387C12.2581 5.08065 11.6129 4.87903 10.9677 4.87903V4.19355C10.9677 3.87097 10.6855 3.54839 10.3226 3.54839H9.67742C9.31452 3.54839 9.03226 3.87097 9.03226 4.19355V4.83871C7.5 4.87903 6.29032 6.16935 6.29032 7.74194C6.29032 8.99193 7.09677 10.1613 8.26613 10.4839L11.1694 11.371C11.5323 11.4919 11.7742 11.8548 11.7742 12.2984C11.7742 12.8226 11.4113 13.2258 10.9274 13.2258H9.1129C8.83064 13.2258 8.58871 13.1855 8.34677 13.0242C8.06452 12.8629 7.74194 12.9032 7.54032 13.1048L7.05645 13.5484C6.73387 13.8306 6.81452 14.3145 7.1371 14.5565C7.70161 14.9194 8.34677 15.1613 9.03226 15.1613V15.8065C9.03226 16.1694 9.31452 16.4516 9.67742 16.4516H10.3226C10.6452 16.4516 10.9677 16.1694 10.9677 15.8065V15.1613C12.4597 15.1613 13.7097 13.871 13.7097 12.2984C13.7097 11.0484 12.9032 9.87903 11.7339 9.51613ZM10 0C4.47581 0 0 4.47581 0 10C0 15.5242 4.47581 20 10 20C15.5242 20 20 15.5242 20 10C20 4.47581 15.5242 0 10 0ZM10 18.0645C5.52419 18.0645 1.93548 14.4758 1.93548 10C1.93548 5.56452 5.52419 1.93548 10 1.93548C14.4355 1.93548 18.0645 5.56452 18.0645 10C18.0645 14.4758 14.4355 18.0645 10 18.0645Z" fill="#282828"/>
</svg>
